<?xml version="1.0" standalone="no"?>
<!DOCTYPE svg PUBLIC "-//W3C//DTD SVG 20010904//EN"
 "https://www.w3.org/TR/2001/REC-SVG-20010904/DTD/svg10.dtd">
<svg version="1.0" xmlns="https://www.w3.org/2000/svg"
 width="1290.000000pt" height="1290.000000pt" viewBox="0 0 1290.000000 1290.000000"
 preserveAspectRatio="xMidYMid meet">
<metadata>
Created by potrace 1.11, written by Peter Selinger 2001-2013
</metadata>
<g transform="translate(0.000000,1290.000000) scale(0.100000,-0.100000)"
fill="#000000" stroke="none">
<path d="M1140 12894 c-23 -4 -121 -21 -161 -29 -9 -2 -57 -17 -107 -34 -388
-130 -689 -438 -812 -831 -63 -199 -58 237 -56 -5575 0 -2926 5 -5333 9 -5350
4 -16 17 -65 27 -107 82 -320 286 -600 565 -775 46 -29 174 -91 220 -107 28
-10 57 -22 66 -26 9 -5 52 -16 95 -25 44 -9 88 -20 99 -23 11 -4 2409 -8 5330
-9 4593 -2 5322 0 5400 12 482 78 879 419 1024 880 63 201 59 -213 60 5560 0
5794 5 5338 -59 5545 -123 397 -422 701 -822 834 -210 70 268 65 -5573 64
-2904 0 -5291 -2 -5305 -4z"/>
</g>
</svg>
